<svg width="43" height="43" viewBox="0 0 43 43" fill="none" xmlns="http://www.w3.org/2000/svg">
<path d="M40.3125 0H2.6875C1.95964 0 1.32975 0.265951 0.797852 0.797852C0.265951 1.32975 0 1.95964 0 2.6875V40.3125C0 41.0404 0.265951 41.6702 0.797852 42.2021C1.32975 42.7341 1.95964 43 2.6875 43H40.3125C41.0404 43 41.6702 42.7341 42.2021 42.2021C42.7341 41.6702 43 41.0404 43 40.3125V2.6875C43 2.21159 42.881 1.76367 42.6431 1.34375C42.4051 0.923828 42.0762 0.594889 41.6562 0.356934C41.2363 0.118978 40.7884 0 40.3125 0ZM40.3125 40.3125H2.6875V2.6875H40.3125V40.3125ZM9.40625 14.7812H12.0938V17.4688C12.0938 17.8607 12.2267 18.1826 12.4927 18.4346C12.7586 18.6865 13.0736 18.8125 13.4375 18.8125C13.8014 18.8125 14.1164 18.6865 14.3823 18.4346C14.6483 18.1826 14.7812 17.8607 14.7812 17.4688V14.7812H17.4688C17.8327 14.7812 18.1476 14.6553 18.4136 14.4033C18.6795 14.1514 18.8125 13.8364 18.8125 13.4585C18.8125 13.0806 18.6795 12.7586 18.4136 12.4927C18.1476 12.2267 17.8327 12.0938 17.4688 12.0938H14.7812V9.40625C14.7812 9.04232 14.6483 8.72738 14.3823 8.46143C14.1164 8.19548 13.8014 8.0625 13.4375 8.0625C13.0736 8.0625 12.7586 8.19548 12.4927 8.46143C12.2267 8.72738 12.0938 9.04232 12.0938 9.40625V12.0938H9.40625C9.04232 12.0938 8.72738 12.2267 8.46143 12.4927C8.19548 12.7586 8.0625 13.0806 8.0625 13.4585C8.0625 13.8364 8.19548 14.1514 8.46143 14.4033C8.72738 14.6553 9.04232 14.7812 9.40625 14.7812ZM18.2036 24.8384C17.9377 24.5724 17.6157 24.4395 17.2378 24.4395C16.8599 24.4395 16.5449 24.5654 16.293 24.8174L13.4375 27.6729L10.582 24.8174C10.3301 24.5654 10.0151 24.4395 9.63721 24.4395C9.25928 24.4395 8.93734 24.5724 8.67139 24.8384C8.40544 25.1043 8.27246 25.4193 8.27246 25.7832C8.27246 26.1471 8.41243 26.4551 8.69238 26.707L11.5479 29.5625L8.69238 32.418C8.52441 32.5859 8.40544 32.7889 8.33545 33.0269C8.26546 33.2648 8.26546 33.4958 8.33545 33.7197C8.40544 33.9437 8.52441 34.1396 8.69238 34.3076C8.80436 34.4476 8.94434 34.5526 9.1123 34.6226C9.28027 34.6925 9.45524 34.7275 9.63721 34.7275C9.81917 34.7275 9.99414 34.6925 10.1621 34.6226C10.3301 34.5526 10.4701 34.4476 10.582 34.3076L13.4375 31.4941L16.293 34.3076C16.4049 34.4476 16.5449 34.5526 16.7129 34.6226C16.8809 34.6925 17.0558 34.7275 17.2378 34.7275C17.4198 34.7275 17.5947 34.6925 17.7627 34.6226C17.9307 34.5526 18.0706 34.4476 18.1826 34.3076C18.8265 33.6917 18.8265 33.0618 18.1826 32.418L15.3271 29.5625L18.1826 26.707C18.4626 26.4551 18.6025 26.1471 18.6025 25.7832C18.6025 25.4193 18.4696 25.1043 18.2036 24.8384ZM25.5312 14.7812H33.5938C33.9577 14.7812 34.2726 14.6553 34.5386 14.4033C34.8045 14.1514 34.9375 13.8364 34.9375 13.4585C34.9375 13.0806 34.8045 12.7586 34.5386 12.4927C34.2726 12.2267 33.9577 12.0938 33.5938 12.0938H25.5312C25.1673 12.0938 24.8524 12.2267 24.5864 12.4927C24.3205 12.7586 24.1875 13.0806 24.1875 13.4585C24.1875 13.8364 24.3205 14.1514 24.5864 14.4033C24.8524 14.6553 25.1673 14.7812 25.5312 14.7812ZM25.5312 28.2188H33.5938C33.9577 28.2188 34.2726 28.0928 34.5386 27.8408C34.8045 27.5889 34.9375 27.2739 34.9375 26.896C34.9375 26.5181 34.8045 26.1961 34.5386 25.9302C34.2726 25.6642 33.9577 25.5312 33.5938 25.5312H25.5312C25.1673 25.5312 24.8524 25.6642 24.5864 25.9302C24.3205 26.1961 24.1875 26.5181 24.1875 26.896C24.1875 27.2739 24.3205 27.5889 24.5864 27.8408C24.8524 28.0928 25.1673 28.2188 25.5312 28.2188ZM25.5312 33.5938H33.5938C33.9577 33.5938 34.2726 33.4678 34.5386 33.2158C34.8045 32.9639 34.9375 32.6489 34.9375 32.271C34.9375 31.8931 34.8045 31.5711 34.5386 31.3052C34.2726 31.0392 33.9577 30.9062 33.5938 30.9062H25.5312C25.1673 30.9062 24.8524 31.0392 24.5864 31.3052C24.3205 31.5711 24.1875 31.8931 24.1875 32.271C24.1875 32.6489 24.3205 32.9639 24.5864 33.2158C24.8524 33.4678 25.1673 33.5938 25.5312 33.5938Z" fill="white"/>
</svg>
