<svg width="152" height="142" viewBox="0 0 152 142" fill="none" xmlns="http://www.w3.org/2000/svg">
<path fill-rule="evenodd" clip-rule="evenodd" d="M76.2468 12.5459L75.9247 0.511355L70.9954 0L71.4566 12.8879L76.2468 12.5459ZM65.1031 1.39516L67.51 13.191L62.8521 14.3595L60.1598 1.74754L65.1031 1.39516ZM58.3772 15.0729L54.7504 3.59326L49.8711 4.46042L53.8669 16.7219L58.3772 15.0729ZM45.0102 6.96377L50.1994 17.8269L45.9624 20.0876L40.2991 8.50156L45.0102 6.96377ZM42.9311 22.173L36.1065 12.2554L31.6939 14.5112L39.1 25.0687L42.9311 22.173ZM26.9991 19.3012L35.5907 27.7344L32.3824 31.3079L23.098 22.3576L26.9991 19.3012ZM28.7102 34.0046L19.4163 26.3523L15.7964 29.737L25.8257 37.8441L28.7102 34.0046ZM13.2339 34.2276L23.5023 40.5119L21.1802 44.7155L10.1203 38.0831L13.2339 34.2276ZM19.3057 48.8451L8.34787 43.859L5.72739 48.0653L17.5131 53.3004L19.3057 48.8451ZM4.00974 53.904L15.6126 57.1145L14.5391 61.7954L2.07953 58.4684L4.00974 53.904ZM13.4113 65.8667L1.47443 64.3022L0.198273 69.0909L12.9996 70.6514L13.4113 65.8667ZM0.683075 74.491L12.7216 74.5891L12.8961 79.3883L0 79.3995L0.683075 74.491ZM13.535 83.8361L1.60007 85.4144L1.60675 90.3702L14.3758 88.5643L13.535 83.8361ZM3.85272 95.7486L15.4519 92.5246L16.9425 97.0898L4.54907 100.655L3.85272 95.7486ZM18.1611 100.938L7.3902 106.316L9.00998 111L20.4954 105.135L18.1611 100.938ZM12.1832 115.155L21.9802 108.158L24.9423 111.938L14.5157 119.527L12.1832 115.155ZM27.493 115.601L18.2079 123.264L20.8398 127.464L30.7115 119.165L27.493 115.601ZM25.4268 130.978L33.5551 122.098L37.2383 125.179L28.6175 134.77L25.4268 130.978ZM34.0232 137.822L40.4858 127.665L44.6482 130.06L37.8239 141.003L34.0232 137.822ZM86.1624 1.53218L84.8065 13.4945L80.0154 13.1664L81.3523 0.339769L86.1624 1.53218ZM94.0484 15.6536L96.8521 3.94568L92.2231 2.17594L89.333 14.744L94.0484 15.6536ZM106.712 7.37482L102.111 18.5L97.5964 16.864L102.417 4.90274L106.712 7.37482ZM110.049 23.0516L116.333 12.7831L112.478 9.66952L105.845 20.7294L110.049 23.0516ZM124.256 18.6408L116.767 28.0669L112.878 25.2497L120.809 15.0806L124.256 18.6408ZM123.814 34.4616L132.542 26.1696L129.624 22.1642L120.355 31.1306L123.814 34.4616ZM139.005 34.5727L129.332 41.7393L126.304 38.0116L136.597 30.2415L139.005 34.5727ZM133.394 49.4616L143.869 43.5273L142.006 38.9349L130.843 45.3927L133.394 49.4616ZM147.453 54.2579L135.912 57.6838L134.342 53.1453L146.671 49.3641L147.453 54.2579ZM137.888 66.4151L149.823 64.8368L149.816 59.881L137.047 61.6869L137.888 66.4151ZM151.406 75.0065L139.371 75.3286L139.029 70.5385L151.917 70.0772L151.406 75.0065ZM137.932 83.9361L149.949 84.6641L150.888 79.7981L138.009 79.1344L137.932 83.9361Z" fill="url(#paint0_linear)"/>
<defs>
<linearGradient id="paint0_linear" x1="149.228" y1="-106.021" x2="70.1914" y2="-82.3912" gradientUnits="userSpaceOnUse">
<stop stop-color="#E95456"/>
<stop offset="1" stop-color="#8C64D2"/>
</linearGradient>
</defs>
</svg>
